<svg id="Input_Image" data-name="Input Image" xmlns="http://www.w3.org/2000/svg" xmlns:xlink="http://www.w3.org/1999/xlink" width="140" height="140" viewBox="0 0 140 140">
  <defs>
    <clipPath id="clip-path">
      <path id="Mask" d="M140,70A70,70,0,1,1,70,0,70,70,0,0,1,140,70Z" fill="none"/>
    </clipPath>
  </defs>
  <g id="Ellipse">
    <path id="Mask-2" data-name="Mask" d="M140,70A70,70,0,1,1,70,0,70,70,0,0,1,140,70Z" fill="none"/>
    <g id="Ellipse-2" data-name="Ellipse" clip-path="url(#clip-path)">
      <path id="Ellipse-3" data-name="Ellipse" d="M140,70A70,70,0,1,1,70,0,70,70,0,0,1,140,70Z" fill="none"/>
      <path id="Ellipse-border" d="M63.482,140.906l.054-.6h0l.054-.6.108-1.2q3.112.284,6.3.284t6.3-.284l.217,2.39Q73.3,141.2,70,141.2T63.482,140.906Zm22.105-2.033h0l-.264-1.17h0l-.132-.586a68.28,68.28,0,0,0,11.973-3.887l.949,2.2a70.658,70.658,0,0,1-12.394,4.025Zm-43.7-3.439.237-.551h0l.474-1.1h0l.237-.552a68.255,68.255,0,0,0,11.973,3.887l-.527,2.342A70.633,70.633,0,0,1,41.887,135.434Zm63.777-5.486-.176-.295h0l-.307-.516a68.935,68.935,0,0,0,10.182-7.41l.4.451h0l.4.451.792.9A71.477,71.477,0,0,1,106.41,131.2Zm-82.611-6.416,1.583-1.8a68.943,68.943,0,0,0,10.183,7.41l-.307.515h0l-.446.747-.476.8A71.572,71.572,0,0,1,23.054,123.532Zm99.576-7.378-.451-.4h0l-.451-.4a68.935,68.935,0,0,0,7.41-10.182l.516.307h0l.295.176,1.251.746a71.477,71.477,0,0,1-7.667,10.536ZM8.8,106.41l1.031-.614.515-.307h0l.516-.307a69,69,0,0,0,7.409,10.182l-.451.4h0l-.451.4-.9.792A71.346,71.346,0,0,1,8.8,106.41ZM133.23,97.165a68.28,68.28,0,0,0,3.887-11.973l.586.132h0l1.17.264h0l.586.132a70.658,70.658,0,0,1-4.025,12.394ZM.542,85.72l.585-.132h0L2.3,85.324h0l.585-.132A68.282,68.282,0,0,0,6.771,97.165l-2.2.949A70.655,70.655,0,0,1,.542,85.72ZM138.515,76.3q.284-3.113.284-6.3t-.284-6.3l1.2-.108.6-.054h0l.6-.054Q141.2,66.7,141.2,70t-.294,6.518ZM-1.2,70q0-3.3.294-6.518l.6.054h0l.6.054,1.2.108Q1.2,66.811,1.2,70t.285,6.3l-2.39.217Q-1.2,73.3-1.2,70ZM133.23,42.836l.552-.237h0l1.1-.474h0l.551-.237a70.633,70.633,0,0,1,4.025,12.394l-2.342.527A68.255,68.255,0,0,0,133.23,42.836ZM.542,54.281A70.63,70.63,0,0,1,4.566,41.887l.551.237h0l1.1.474h0l.552.237A68.258,68.258,0,0,0,2.883,54.808ZM121.728,24.637l1.8-1.583A71.572,71.572,0,0,1,131.2,33.59l-.8.476-.747.446h0l-.515.307A68.943,68.943,0,0,0,121.728,24.637ZM10.348,34.512h0L9.317,33.9h0L8.8,33.59a71.441,71.441,0,0,1,7.667-10.536l1.8,1.583a69,69,0,0,0-7.409,10.183Zm94.834-23.649.307-.516h0l.307-.515L106.41,8.8a71.346,71.346,0,0,1,10.536,7.667l-.792.9-.4.451h0l-.4.451A69,69,0,0,0,105.181,10.863ZM23.054,16.468A71.441,71.441,0,0,1,33.59,8.8l.308.516h0l.615,1.031h0l.307.515a69,69,0,0,0-10.183,7.409ZM85.192,2.883l.132-.585h0l.264-1.171h0L85.72.542A70.655,70.655,0,0,1,98.114,4.566l-.949,2.2A68.282,68.282,0,0,0,85.192,2.883ZM42.6,6.219h0l-.474-1.1h0l-.237-.551A70.63,70.63,0,0,1,54.281.542l.527,2.341A68.258,68.258,0,0,0,42.836,6.771ZM70,1.2v0q-3.187,0-6.3.285L63.591.29l-.054-.6h0l-.054-.6Q66.7-1.2,70-1.2v0q3.3,0,6.518.294L76.3,1.485Q73.188,1.2,70,1.2Z" fill="#dcdcdc"/>
    </g>
  </g>
  <g id="Camera_26x26" data-name="Camera / 26x26" transform="translate(57 57)">
    <path id="Background" d="M0,0H26V26H0Z" fill="none"/>
    <g id="Vector" transform="translate(1.08 3.25)">
      <path id="Vector-border" d="M21.667,18.7a1.367,1.367,0,0,0,1.367-1.367h1.6A2.967,2.967,0,0,1,21.667,20.3Zm-19.5,1.6V18.7h19.5v1.6Zm-2.1-.869L1.2,18.3a1.364,1.364,0,0,0,.966.4v1.6A2.966,2.966,0,0,1,.069,19.431Zm-.869-2.1H.8a1.366,1.366,0,0,0,.4.967L.069,19.431A2.964,2.964,0,0,1-.8,17.333Zm23.834,0V5.417A1.367,1.367,0,0,0,21.667,4.05H17.333a.8.8,0,0,1-.665-.356L14.738.8H9.095L7.166,3.694,6.5,3.25v.8H2.166a1.364,1.364,0,0,0-.966.4L.069,3.319a2.966,2.966,0,0,1,2.1-.869H6.072L8-.444A.8.8,0,0,1,8.667-.8h6.5v0a.8.8,0,0,1,.665.356l1.93,2.894h3.905a2.967,2.967,0,0,1,2.966,2.967V17.333ZM8.667,0h0L8-.444ZM-.8,17.333V5.417H.8V17.333Zm0-11.916a2.963,2.963,0,0,1,.869-2.1L1.2,4.451a1.366,1.366,0,0,0-.4.967ZM6.5,3.25l.666.444A.8.8,0,0,1,6.5,4.05Z" fill="#303030"/>
    </g>
    <g id="Vector-2" data-name="Vector" transform="translate(8.67 9.75)">
      <path id="Vector-border-2" data-name="Vector-border" d="M4.333,7.867A3.534,3.534,0,0,0,7.867,4.333h1.6A5.134,5.134,0,0,1,4.333,9.467ZM-.8,4.333H.8A3.534,3.534,0,0,0,4.333,7.867v1.6A5.134,5.134,0,0,1-.8,4.333Zm8.667,0a3.533,3.533,0,0,0-7.067,0H-.8a5.134,5.134,0,0,1,10.267,0Z" fill="#303030"/>
    </g>
  </g>
</svg>
