<svg xmlns="http://www.w3.org/2000/svg" xmlns:xlink="http://www.w3.org/1999/xlink" width="128.477" height="60.999" viewBox="0 0 128.477 60.999">
  <defs>
    <linearGradient id="linear-gradient" x2="1" y2="1" gradientUnits="objectBoundingBox">
      <stop offset="0" stop-color="#ff725e"/>
      <stop offset="1" stop-color="#655a58"/>
    </linearGradient>
    <filter id="Union_13" x="6" y="0" width="61" height="60.999" filterUnits="userSpaceOnUse">
      <feOffset dx="3" dy="3" input="SourceAlpha"/>
      <feGaussianBlur stdDeviation="4.5" result="blur"/>
      <feFlood flood-color="#25c585" flood-opacity="0.322"/>
      <feComposite operator="in" in2="blur"/>
      <feComposite in="SourceGraphic"/>
    </filter>
    <filter id="Union_14" x="0" y="0.634" width="61" height="54.366" filterUnits="userSpaceOnUse">
      <feOffset dx="-3" dy="-3" input="SourceAlpha"/>
      <feGaussianBlur stdDeviation="4.5" result="blur-2"/>
      <feFlood flood-color="#fff" flood-opacity="0.639"/>
      <feComposite operator="in" in2="blur-2"/>
      <feComposite in="SourceGraphic"/>
    </filter>
  </defs>
  <g id="Group_155" data-name="Group 155" transform="translate(-1841.5 446.5)">
    <g id="Group_153" data-name="Group 153">
      <path id="Path_179" data-name="Path 179" d="M15.281-11.2,12.211,0h-2.1L7.977-7.836A5.356,5.356,0,0,1,7.813-8.93H7.781a5.307,5.307,0,0,1-.187,1.078L5.453,0H3.3L.172-11.2H2.211L4.242-3A5.975,5.975,0,0,1,4.4-1.922h.039A6.117,6.117,0,0,1,4.656-3l2.3-8.2H8.867l2.125,8.266a6.455,6.455,0,0,1,.164,1h.031a6.139,6.139,0,0,1,.18-1.031L13.359-11.2ZM23.736,0H21.923V-4.375q0-2.375-1.586-2.375a1.659,1.659,0,0,0-1.344.688A2.737,2.737,0,0,0,18.447-4.3V0h-1.82V-11.844h1.82v5.172h.031a2.862,2.862,0,0,1,2.594-1.516q2.664,0,2.664,3.258Zm8.337,0H30.315V-1.25h-.031A2.647,2.647,0,0,1,27.854.188a2.559,2.559,0,0,1-1.848-.641,2.241,2.241,0,0,1-.668-1.7q0-2.266,2.609-2.641l2.375-.336q0-1.711-1.625-1.711a3.86,3.86,0,0,0-2.578.984V-7.437a5.622,5.622,0,0,1,2.922-.75q3.031,0,3.031,2.984Zm-1.75-3.93-1.68.234a2.662,2.662,0,0,0-1.176.379,1.107,1.107,0,0,0-.395.973,1.065,1.065,0,0,0,.363.832,1.407,1.407,0,0,0,.973.324A1.8,1.8,0,0,0,29.78-1.77a2.064,2.064,0,0,0,.543-1.465ZM38.5-.086A3.141,3.141,0,0,1,37.1.18q-2.328,0-2.328-2.234V-6.578H33.433V-8h1.336V-9.852l1.813-.516V-8H38.5v1.422H36.582v4a1.576,1.576,0,0,0,.258,1.016,1.07,1.07,0,0,0,.859.3,1.246,1.246,0,0,0,.8-.266ZM39.552-.25V-1.93a3.616,3.616,0,0,0,2.242.773q1.641,0,1.641-.969a.763.763,0,0,0-.141-.465,1.342,1.342,0,0,0-.379-.34,2.979,2.979,0,0,0-.562-.266q-.324-.117-.723-.266a7.65,7.65,0,0,1-.887-.414,2.679,2.679,0,0,1-.656-.5A1.873,1.873,0,0,1,39.693-5a2.316,2.316,0,0,1-.133-.82,1.9,1.9,0,0,1,.273-1.02,2.376,2.376,0,0,1,.734-.742,3.522,3.522,0,0,1,1.047-.453,4.793,4.793,0,0,1,1.211-.152,5.5,5.5,0,0,1,1.984.336v1.586a3.345,3.345,0,0,0-1.937-.578,2.53,2.53,0,0,0-.621.07,1.6,1.6,0,0,0-.473.2.961.961,0,0,0-.3.3.718.718,0,0,0-.109.387.826.826,0,0,0,.109.438.993.993,0,0,0,.324.316,2.8,2.8,0,0,0,.516.25q.3.113.691.246a10.1,10.1,0,0,1,.926.43,3.129,3.129,0,0,1,.7.5,1.945,1.945,0,0,1,.445.641,2.175,2.175,0,0,1,.156.863,1.973,1.973,0,0,1-.281,1.063,2.344,2.344,0,0,1-.75.75,3.511,3.511,0,0,1-1.082.441,5.621,5.621,0,0,1-1.293.145A5.448,5.448,0,0,1,39.552-.25ZM55.764-4.531Q55.764.188,51.3.188q-4.281,0-4.281-4.539V-11.2h1.859v6.469q0,3.3,2.563,3.3,2.469,0,2.469-3.18V-11.2h1.859ZM60.031-1.18H60V3.68H58.187V-8H60v1.406h.031A2.97,2.97,0,0,1,62.75-8.187a2.864,2.864,0,0,1,2.375,1.07,4.489,4.489,0,0,1,.852,2.875,4.984,4.984,0,0,1-.961,3.2A3.178,3.178,0,0,1,62.39.164,2.621,2.621,0,0,1,60.031-1.18Zm-.047-3.156v.992a2.117,2.117,0,0,0,.559,1.484,1.84,1.84,0,0,0,1.418.609,1.852,1.852,0,0,0,1.582-.785,3.654,3.654,0,0,0,.574-2.191,2.88,2.88,0,0,0-.535-1.848,1.759,1.759,0,0,0-1.449-.668,1.953,1.953,0,0,0-1.559.688A2.547,2.547,0,0,0,59.984-4.336Z" transform="translate(1904 -414)" fill="#1a1a1a"/>
      <g transform="matrix(1, 0, 0, 1, 1841.5, -446.5)" filter="url(#Union_13)">
        <path id="Union_13-2" data-name="Union 13" d="M3986.066,125.466l-5.705,1.545,1.43-5.309a16.982,16.982,0,1,1,4.275,3.764Z" transform="translate(-3961.5 -83.5)" fill="url(#linear-gradient)"/>
      </g>
      <g transform="matrix(1, 0, 0, 1, 1841.5, -446.5)" filter="url(#Union_14)">
        <path id="Union_14-2" data-name="Union 14" d="M3986.066,125.466l-5.705,1.545,1.43-5.309A16.928,16.928,0,0,1,3978,111c0-9.389,12.972-14.7,19.137-5.832,3.045,4.377,6.708,3.562,9.635,2.749,3-.835,5.229-1.669,5.229,3.083a17,17,0,0,1-25.934,14.465Z" transform="translate(-3961.5 -83.5)" fill="#994438"/>
      </g>
    </g>
    <path id="Path_111" data-name="Path 111" d="M-4104.322-23.96a6.41,6.41,0,0,1,1.768-.233s.269-.045.51.465,1.342,3.052,1.342,3.052a1.232,1.232,0,0,1-.358,1.226c-.582.573-.859.805-.859.805s-.242.215.08.743a9.966,9.966,0,0,0,5.256,4.552c.238.089.5.175.7-.07s1.35-1.632,1.35-1.632a.605.605,0,0,1,.715-.2c.4.2,3.177,1.545,3.177,1.545a.578.578,0,0,1,.332.6,3.266,3.266,0,0,1-2.158,3.054c-2.021.736-4.729-.527-4.729-.527a18.2,18.2,0,0,1-8.375-8.062A3.855,3.855,0,0,1-4104.322-23.96Z" transform="translate(5973.005 -402.088)" fill="#fff"/>
  </g>
</svg>
